<?xml version="1.0" standalone="no"?>
<!DOCTYPE svg PUBLIC "-//W3C//DTD SVG 20010904//EN"
 "http://www.w3.org/TR/2001/REC-SVG-20010904/DTD/svg10.dtd">
<svg version="1.0" xmlns="http://www.w3.org/2000/svg"
 width="512.000000pt" height="512.000000pt" viewBox="0 0 512.000000 512.000000"
 preserveAspectRatio="xMidYMid meet">
<metadata>
Created by potrace 1.11, written by Peter Selinger 2001-2013
</metadata>
<g transform="translate(0.000000,512.000000) scale(0.100000,-0.100000)"
fill="#000000" stroke="none">
<path d="M2280 5109 c-291 -33 -588 -120 -850 -250 -275 -137 -465 -273 -680
-489 -216 -215 -352 -405 -489 -680 -177 -358 -261 -719 -261 -1130 0 -313 36
-532 137 -835 50 -147 169 -399 249 -525 145 -228 393 -505 584 -652 353 -272
735 -442 1161 -519 156 -27 554 -38 719 -19 390 45 803 194 1120 405 641 426
1048 1088 1141 1857 18 155 7 564 -20 717 -96 532 -337 997 -716 1377 -145
145 -246 228 -401 332 -90 60 -284 168 -284 159 0 -3 43 -28 96 -56 103 -56
282 -173 337 -220 l34 -30 -9 -73 c-19 -166 -67 -267 -183 -384 -98 -99 -168
-137 -266 -142 -51 -3 -77 1 -117 18 -107 46 -198 182 -244 363 -34 135 -16
266 71 502 22 59 42 109 45 112 3 4 45 -11 93 -31 117 -50 133 -54 48 -12
-191 93 -504 177 -767 206 -112 12 -438 11 -548 -1z m795 -576 c37 -168 120
-364 207 -490 80 -117 108 -231 89 -352 -27 -166 -135 -268 -296 -279 -176
-11 -315 87 -384 273 -83 223 -11 515 184 749 52 62 168 176 179 176 2 0 12
-35 21 -77z m1369 -544 c11 -104 -5 -279 -35 -376 -97 -312 -340 -487 -654
-470 -166 9 -289 61 -332 139 -14 26 -18 56 -18 133 0 87 4 107 27 157 59 128
164 192 383 237 77 16 179 43 227 61 87 31 282 137 341 184 18 14 37 24 42 22
6 -1 14 -40 19 -87z m-1919 -436 c83 -173 159 -288 231 -348 103 -87 189 -179
213 -228 73 -151 36 -388 -75 -486 -75 -66 -128 -86 -224 -86 -74 0 -93 4
-145 29 -141 69 -248 237 -300 470 -13 59 -16 106 -12 194 5 133 25 210 88
337 42 84 146 245 157 244 4 0 34 -57 67 -126z m-497 -726 c41 -172 103 -300
206 -422 106 -125 144 -238 133 -393 -12 -174 -75 -285 -194 -344 -61 -30 -76
-33 -153 -33 -103 1 -172 28 -248 99 -90 84 -134 195 -152 384 -29 313 72 599
292 821 l73 73 7 -28 c3 -16 20 -87 36 -157z m1662 55 c174 -57 296 -63 505
-26 44 8 83 14 88 14 25 0 -22 -138 -80 -234 -81 -133 -268 -295 -419 -362
-234 -104 -473 -101 -629 6 -93 64 -139 170 -115 262 23 84 67 164 125 226
140 151 301 186 525 114z m-2286 -714 c36 -179 69 -274 147 -429 85 -170 109
-241 109 -319 0 -130 -98 -281 -225 -348 -40 -20 -68 -27 -140 -30 -115 -5
-165 8 -221 60 -112 103 -163 348 -118 566 27 132 98 283 190 403 40 52 223
233 230 227 1 -2 14 -60 28 -130z m1641 -161 c157 -50 234 -60 433 -56 95 2
172 1 172 -2 0 -15 -35 -88 -68 -144 -184 -311 -574 -515 -888 -466 -165 25
-280 82 -318 155 -39 77 -31 220 19 321 13 28 47 76 76 108 89 100 171 129
349 123 97 -3 132 -9 225 -39z m-866 -748 c30 -11 86 -37 125 -60 124 -71 264
-106 509 -125 48 -4 90 -11 93 -15 3 -5 -12 -41 -32 -80 -180 -342 -735 -523
-1089 -355 -174 83 -239 209 -190 372 27 91 112 176 240 240 112 55 226 63
344 23z m-886 -459 c37 -41 34 -69 -12 -127 -47 -59 -185 -193 -199 -193 -5 0
-42 25 -81 56 l-72 56 112 106 c62 59 124 115 138 125 35 24 79 15 114 -23z"/>
</g>
</svg>
